<?xml version="1.0" standalone="no"?>
<!DOCTYPE svg PUBLIC "-//W3C//DTD SVG 1.1//EN" "http://www.w3.org/Graphics/SVG/1.1/DTD/svg11.dtd" >
<svg xmlns="http://www.w3.org/2000/svg">
<metadata></metadata>
<defs>
<font id="LFT_Etica_Book" horiz-adv-x="1099" >
<font-face units-per-em="2048" ascent="1495" descent="-553" />
<missing-glyph horiz-adv-x="415" />
<glyph horiz-adv-x="2048" />
<glyph horiz-adv-x="2048" />
<glyph unicode="&#xd;" horiz-adv-x="0" />
<glyph unicode=" "  horiz-adv-x="415" />
<glyph unicode="&#x09;" horiz-adv-x="415" />
<glyph unicode="&#xa0;" horiz-adv-x="415" />
<glyph unicode="!" horiz-adv-x="638" d="M207 80q0 53 31.5 81.5t83.5 28.5q47 0 79.5 -27.5t32.5 -78.5t-32.5 -80t-79.5 -29q-51 0 -83 29t-32 76zM242 981v494h159v-494l-20 -575h-121z" />
<glyph unicode="&#x22;" horiz-adv-x="724" d="M147 907v568h140v-568h-140zM438 907v568h140v-568h-140z" />
<glyph unicode="#" horiz-adv-x="1423" d="M109 399v107h274l100 289h-262v108h299l142 406l102 -25l-131 -381h325l144 404l102 -23l-133 -381h252v-108h-291l-100 -289h280v-107h-315l-137 -372l-101 24l127 348h-329l-135 -372l-99 24l123 348h-237zM498 506h321l103 289h-330z" />
<glyph unicode="$" horiz-adv-x="1062" d="M43 201l86 90q86 -78 178 -125t195 -47q63 0 118.5 16.5t97.5 47t65.5 76.5t23.5 106q0 49 -15.5 90t-52.5 74.5t-99 64.5t-157 59q-104 31 -179 67t-122 82t-68.5 105.5t-21.5 136.5q0 76 27.5 138.5t77 106.5t117 72t147.5 34v174h125v-174q111 -12 203 -60.5 t157 -128.5l-86 -82q-72 74 -159 114t-175 40q-61 0 -112.5 -14.5t-90 -42t-60 -68.5t-21.5 -96q0 -59 20.5 -101.5t62.5 -74t104.5 -56t145.5 -51.5q205 -66 293 -159t88 -240q0 -78 -27.5 -142.5t-76.5 -112.5t-117.5 -79t-148.5 -41v-178h-125v178q-135 10 -239.5 66.5 t-178.5 134.5z" />
<glyph unicode="%" horiz-adv-x="1738" d="M86 1143q0 68 24.5 127t67.5 103t103.5 68.5t132.5 24.5q70 0 130 -23.5t104 -65.5t68.5 -101t24.5 -131q0 -68 -25.5 -126t-69.5 -102.5t-103.5 -69t-128.5 -24.5q-72 0 -132.5 22.5t-103.5 64.5t-67.5 101.5t-24.5 131.5zM209 1145q0 -96 57.5 -154.5t147.5 -58.5 t146 60.5t56 152.5t-56 152.5t-146 60.5q-92 0 -148.5 -60.5t-56.5 -152.5zM356 0l897 1475h138l-899 -1475h-136zM995 311q0 70 24.5 129.5t69 103.5t103.5 68.5t131 24.5t132.5 -24.5t104.5 -67.5t68.5 -102.5t24.5 -127.5t-25.5 -127t-70 -103t-104.5 -68.5t-130 -24.5 q-72 0 -132.5 23.5t-103.5 66.5t-67.5 101t-24.5 128zM1118 315q0 -92 57.5 -152.5t147.5 -60.5t146.5 60.5t56.5 152.5q0 88 -56.5 150.5t-146.5 62.5q-92 0 -148.5 -61.5t-56.5 -151.5z" />
<glyph unicode="&#x26;" horiz-adv-x="1466" d="M162 399q0 154 89 265.5t259 189.5q-68 72 -115 148.5t-47 173.5q0 66 23.5 122t66.5 97t104.5 64.5t135.5 23.5q70 0 129 -20.5t103 -59.5t69 -93.5t25 -121.5q0 -125 -76 -212t-205 -151l180 -219l256 207l84 -98l-258 -213l361 -428l-107 -92l-174 200 q-96 -111 -200.5 -164t-246.5 -53q-100 0 -184 32t-144.5 89t-94 137t-33.5 176zM311 406q0 -63 22.5 -120t64.5 -99t101.5 -66.5t133.5 -24.5q104 0 189 50.5t163 142.5l-393 475q-135 -59 -208 -147.5t-73 -210.5zM489 1182q0 -55 35 -122t113 -149q119 53 175 122t56 151 q0 74 -53 125t-139 51t-136.5 -50t-50.5 -128z" />
<glyph unicode="'" horiz-adv-x="432" d="M147 907v568h140v-568h-140z" />
<glyph unicode="(" horiz-adv-x="712" d="M139 606q0 266 89 487.5t249 407.5l103 -59q-147 -197 -220 -396.5t-73 -437.5q0 -121 16 -222t51 -196.5t92.5 -187.5t137.5 -192l-88 -72q-172 162 -264.5 384t-92.5 484z" />
<glyph unicode=")" horiz-adv-x="712" d="M129 -190q80 100 137.5 192t92 187.5t51 196.5t16.5 222q0 238 -72.5 437.5t-220.5 396.5l103 59q160 -186 248.5 -407.5t88.5 -487.5q0 -262 -92 -484t-264 -384z" />
<glyph unicode="*" horiz-adv-x="876" d="M123 1221l27 75l229 -55l18 234h80l19 -232l231 55l27 -77l-219 -82l139 -215l-64 -47l-174 198l-176 -198l-70 47l146 215z" />
<glyph unicode="+" horiz-adv-x="1228" d="M78 551v117h475v477h121v-477h475v-117h-475v-477h-121v477h-475z" />
<glyph unicode="," horiz-adv-x="493" d="M121 -205q78 41 111.5 88t37.5 107q-23 -12 -51 -13q-45 0 -69.5 30t-24.5 73q0 49 32.5 77.5t86.5 28.5q70 0 100.5 -46t30.5 -103q0 -98 -52.5 -179t-168.5 -128z" />
<glyph unicode="-" horiz-adv-x="686" d="M70 492v143h546v-143h-546z" />
<glyph unicode="." horiz-adv-x="497" d="M133 84q0 53 33 83t84 30t84 -29t33 -82q0 -51 -33 -81t-84 -30q-53 0 -85 30t-32 79z" />
<glyph unicode="/" horiz-adv-x="745" d="M47 -188l500 1701h137l-506 -1701h-131z" />
<glyph unicode="0" horiz-adv-x="1230" d="M133 723q0 393 126 572.5t357 179.5q117 0 206 -43t150.5 -134.5t93.5 -231.5t32 -335q0 -391 -127 -573.5t-359 -182.5q-231 0 -355 181.5t-124 566.5zM283 723q0 -319 84 -466.5t249 -147.5q162 0 246 147t84 471q0 322 -83 466t-247 144t-248.5 -144t-84.5 -470z" />
<glyph unicode="1" horiz-adv-x="933" d="M84 1208q51 12 108.5 36t111.5 55.5t103.5 70.5t88.5 82h106v-1327h285v-125h-756v125h324v1110q-78 -51 -164 -88t-185 -53z" />
<glyph unicode="2" horiz-adv-x="1036" d="M53 1270q90 92 206 148.5t251 56.5q78 0 149.5 -25t126 -71t86 -112.5t31.5 -152.5q0 -57 -8 -104t-26.5 -92.5t-47 -90.5t-71.5 -98l-478 -594h643v-135h-839v104l545 687q70 88 100.5 156.5t30.5 146.5q0 109 -72 174t-191 65q-94 0 -182 -44t-170 -120z" />
<glyph unicode="3" horiz-adv-x="1060" d="M37 172l82 98q84 -78 170 -119.5t205 -41.5q63 0 120.5 19t98.5 55t65.5 87.5t24.5 116.5q0 63 -18.5 117.5t-58.5 93.5t-103.5 61.5t-155.5 22.5q-20 0 -58 -2t-47 -2l-6 131q76 2 142.5 24.5t117 62.5t79 94t28.5 120q0 57 -20.5 100t-54.5 72t-80 43t-95 14 q-90 0 -167 -26.5t-148 -77.5l-66 102q82 61 179.5 99.5t217.5 38.5q82 0 153 -24t122 -68t79.5 -109.5t28.5 -147.5q0 -59 -19 -115.5t-55 -103.5t-85 -84t-111 -57q182 -16 265 -117.5t83 -257.5q0 -102 -35.5 -179t-97 -130t-143.5 -80t-174 -27q-135 0 -250 46.5 t-213 150.5z" />
<glyph unicode="4" horiz-adv-x="1105" d="M68 346v119l616 987h199v-973h172v-133h-172v-346h-146v346h-669zM227 479h510v821z" />
<glyph unicode="5" horiz-adv-x="1091" d="M86 109l64 110q84 -53 168.5 -80.5t170.5 -27.5q147 0 240.5 85t93.5 263q0 141 -67.5 229t-210.5 88q-94 0 -161 -37t-105 -80l-9 -110h-135l66 903h694l-8 -143h-561l-37 -514q43 45 115.5 77.5t175.5 32.5q197 0 296 -116.5t99 -321.5q0 -121 -36 -212t-99.5 -153.5 t-150.5 -94.5t-189 -32q-94 0 -205 31t-209 103z" />
<glyph unicode="6" horiz-adv-x="1107" d="M113 614q0 432 141 646.5t385 214.5q80 0 164 -28t155 -91l-65 -101q-66 49 -125 70t-125 21q-109 0 -179.5 -52.5t-114.5 -137.5t-65.5 -194.5t-27.5 -224.5q70 70 160 117t200 47q98 0 171 -35t121 -96t72 -143t24 -174q0 -238 -118 -358t-317 -120q-231 0 -343.5 166 t-112.5 473zM258 602q0 -135 23.5 -229t65.5 -153.5t99 -87.5t129 -28q57 0 108.5 19.5t90.5 61.5t61.5 105.5t22.5 151.5q0 86 -21.5 147.5t-58.5 101.5t-87 58.5t-105 18.5q-53 0 -103.5 -17.5t-92.5 -43t-75.5 -54t-56.5 -51.5z" />
<glyph unicode="7" horiz-adv-x="911" d="M35 1309v143h846v-104l-543 -1348h-156v20l529 1289h-676z" />
<glyph unicode="8" horiz-adv-x="1085" d="M84 360q0 76 25.5 141.5t68.5 119t101.5 93.5t123.5 66q-123 47 -190.5 134t-67.5 210q0 80 30 144.5t83 110.5t127 71t162 25q86 0 157.5 -22.5t124 -64.5t81 -103.5t28.5 -137.5q0 -59 -19.5 -111.5t-54.5 -98.5t-82 -84t-102 -65q156 -68 234.5 -162t78.5 -235 q0 -96 -32.5 -174t-94 -131t-146.5 -82t-190 -29q-211 0 -328.5 102.5t-117.5 282.5zM236 365q0 -117 79.5 -189t221.5 -72q137 0 220 78t83 203q0 70 -28 124t-72 94t-101 67.5t-117 48.5q-57 -25 -108.5 -56.5t-91 -74.5t-63 -98t-23.5 -125zM295 1130q0 -55 21.5 -99 t57.5 -78.5t83 -60.5t98 -44q39 16 81 45t77 65.5t57.5 82.5t22.5 98q0 104 -68 158.5t-180 54.5q-113 0 -181.5 -59t-68.5 -163z" />
<glyph unicode="9" horiz-adv-x="1091" d="M78 999q0 109 30.5 197t88 149.5t138.5 95.5t179 34q113 0 199 -44.5t142 -126t85 -196.5t29 -258q0 -223 -36 -388t-100.5 -272.5t-156.5 -161t-205 -53.5q-96 0 -182 28t-158 83l66 104q57 -41 119.5 -65.5t142.5 -24.5q98 0 164.5 51.5t108.5 136.5t63.5 194.5 t31.5 228.5q-74 -72 -163 -117t-199 -45q-98 0 -171 36t-121 97t-71.5 143t-23.5 174zM225 1008q0 -86 21.5 -148.5t57.5 -102.5t85 -58.5t105 -18.5q55 0 104 17.5t91 43t76 56t58 57.5q-2 244 -87 364.5t-226 120.5q-57 0 -108.5 -20.5t-90.5 -61t-62.5 -103t-23.5 -146.5 z" />
<glyph unicode=":" horiz-adv-x="497" d="M133 84q0 53 33 83t84 30t84 -29t33 -82q0 -51 -33 -81t-84 -30q-53 0 -85 30t-32 79zM133 907q0 53 33 83t84 30t84 -28.5t33 -82.5q0 -51 -33 -80.5t-84 -29.5q-53 0 -85 29.5t-32 78.5z" />
<glyph unicode=";" horiz-adv-x="493" d="M121 -205q78 41 111.5 88t37.5 107q-23 -12 -51 -13q-45 0 -69.5 30t-24.5 73q0 49 32.5 77.5t86.5 28.5q70 0 100.5 -46t30.5 -103q0 -98 -52.5 -179t-168.5 -128zM135 907q0 53 33 83t84 30t84 -28.5t33 -82.5q0 -51 -33 -80.5t-84 -29.5q-53 0 -85 29.5t-32 78.5z" />
<glyph unicode="&#x3c;" horiz-adv-x="1228" d="M41 563v78l1110 457l45 -115l-950 -381l952 -379l-47 -114z" />
<glyph unicode="=" horiz-adv-x="1228" d="M82 367v108h1065v-108h-1065zM82 692v109h1065v-109h-1065z" />
<glyph unicode="&#x3e;" horiz-adv-x="1228" d="M33 231l948 381l-948 381l45 113l1108 -455v-78l-1110 -454z" />
<glyph unicode="?" horiz-adv-x="1071" d="M109 1063q0 211 114.5 324.5t327.5 113.5q90 0 166 -23.5t130 -69.5t85 -112.5t31 -152.5q0 -80 -28 -142.5t-69 -114.5t-88 -100.5t-88 -98.5t-68.5 -106.5t-27.5 -127.5v-47h-139v53q0 84 25.5 148.5t65.5 116.5t85 97t85 91t65.5 96.5t25.5 113.5q0 117 -66.5 180.5 t-199.5 63.5q-137 0 -213 -79t-76 -224h-143zM410 80q0 53 31.5 81.5t82.5 28.5q47 0 80 -27.5t33 -78.5t-33 -80t-80 -29q-51 0 -82.5 29t-31.5 76z" />
<glyph unicode="@" horiz-adv-x="2015" d="M131 381q0 211 74 386t203 300t305 193.5t381 68.5q182 0 328.5 -49t249 -140t157.5 -219t55 -284q0 -135 -37 -253t-104.5 -206t-163.5 -139t-213 -51q-115 0 -168 52t-45 140q-51 -78 -125 -132t-180 -54q-143 0 -212 88t-69 229q0 104 35 201.5t101.5 172.5t162 119 t215.5 44q92 0 169 -20.5t132 -55.5l-114 -475q-12 -47 -13 -84q0 -59 28 -90t95 -31q90 0 161 46t120 122t74.5 171t25.5 194q0 147 -49 257.5t-138 184.5t-212 112t-273 38q-180 0 -332.5 -62.5t-263 -174.5t-172 -265.5t-61.5 -335.5q0 -170 57.5 -300t158.5 -220 t239.5 -136.5t298.5 -46.5q178 0 318 46.5t269 140.5l58 -86q-135 -106 -302 -158.5t-345 -52.5q-184 0 -344 53t-279 156.5t-187.5 255t-68.5 350.5zM696 313q0 -94 40 -155.5t134 -61.5q55 0 102.5 24.5t84.5 64.5t64.5 92.5t41.5 107.5l80 313q-59 43 -176 43 q-86 0 -154.5 -34.5t-116.5 -94t-74 -136.5t-26 -163z" />
<glyph unicode="A" horiz-adv-x="1316" d="M39 0l534 1475h166l539 -1475h-168l-156 422h-594l-151 -422h-170zM406 565h503l-252 731z" />
<glyph unicode="B" horiz-adv-x="1275" d="M170 0v1475h502q246 0 354.5 -95.5t108.5 -267.5q0 -53 -15.5 -108.5t-47.5 -101.5t-83 -80t-125 -44v-4q96 -10 162 -45t105.5 -85t57 -108.5t17.5 -113.5q0 -119 -42 -200t-115.5 -130t-174 -70.5t-219.5 -21.5h-485zM328 137h370q174 0 260 79t86 214q0 74 -26.5 124 t-74.5 81t-115.5 43t-149.5 12h-350v-553zM328 827h284q72 0 137.5 11.5t114.5 42t79 83t30 132.5q0 135 -87 188t-243 53h-315v-510z" />
<glyph unicode="C" horiz-adv-x="1335" d="M115 741q0 156 39 295.5t118.5 241.5t198.5 162.5t279 60.5q111 0 201.5 -29.5t158.5 -88t105.5 -143.5t41.5 -196h-155q-4 61 -24.5 118t-63.5 100t-108.5 68.5t-157.5 25.5q-111 0 -198 -44t-145.5 -124t-89 -191.5t-30.5 -248.5q0 -156 32.5 -274t94 -196.5 t147.5 -118.5t191 -40q143 0 241.5 54t175.5 130l93 -104q-98 -104 -227.5 -164t-291.5 -60q-164 0 -282.5 60.5t-195.5 164t-112.5 243t-35.5 298.5z" />
<glyph unicode="D" horiz-adv-x="1421" d="M170 0v1475h412q352 0 538.5 -180.5t186.5 -559.5q0 -197 -48.5 -336t-142.5 -228t-233.5 -130t-323.5 -41h-389zM328 143h264q291 0 420 150.5t129 441.5q0 287 -129 441.5t-420 154.5h-264v-1188z" />
<glyph unicode="E" horiz-adv-x="1214" d="M170 0v1475h922v-142h-764v-508h696v-141h-696v-545h780v-139h-938z" />
<glyph unicode="F" horiz-adv-x="1114" d="M170 0v1475h877v-142h-719v-516h635v-139h-635v-678h-158z" />
<glyph unicode="G" horiz-adv-x="1458" d="M115 745q0 168 43 306.5t128 239t208.5 155.5t285.5 55q150 0 251.5 -37t165 -98t91 -140t29.5 -163h-162q-2 59 -23.5 112.5t-67.5 93.5t-118 63.5t-172 23.5q-123 0 -215 -47t-153.5 -130t-92 -194t-30.5 -237q0 -303 128 -468t373 -165q123 0 222.5 42t177.5 122v339 h-342v136h481v-547q-61 -74 -132 -119t-142.5 -69.5t-140 -34t-126.5 -9.5q-180 0 -307 58.5t-207 162t-116.5 245t-36.5 304.5z" />
<glyph unicode="H" horiz-adv-x="1427" d="M170 0v1475h158v-633h770v633h157v-1475h-157v696h-770v-696h-158z" />
<glyph unicode="I" horiz-adv-x="499" d="M170 0v1475h158v-1475h-158z" />
<glyph unicode="J" horiz-adv-x="800" d="M35 31l37 129q53 -23 106 -35t117 -12q51 0 87 11t58.5 40t32.5 76t10 118v1117h158v-1149q0 -180 -78 -265.5t-241 -85.5q-68 0 -148 13.5t-139 42.5z" />
<glyph unicode="K" horiz-adv-x="1292" d="M170 0v1475h158v-646h286l381 646h176l-419 -707l493 -768h-180l-451 694h-286v-694h-158z" />
<glyph unicode="L" horiz-adv-x="1073" d="M170 0v1475h158v-1334h688v-141h-846z" />
<glyph unicode="M" horiz-adv-x="1769" d="M121 0l147 1475h187l430 -1246l434 1246h180l150 -1475h-150l-125 1210l-426 -1210h-131l-422 1210l-123 -1210h-151z" />
<glyph unicode="N" horiz-adv-x="1435" d="M170 0v1475h147l791 -1190v1190h158v-1475h-144l-796 1192v-1192h-156z" />
<glyph unicode="O" horiz-adv-x="1558" d="M117 754q0 184 50 324.5t140 233.5t213 141t271 48q141 0 260.5 -48t205.5 -141t135.5 -233.5t49.5 -324.5q0 -203 -50.5 -350.5t-138.5 -242.5t-209.5 -140.5t-263.5 -45.5q-143 0 -265 46.5t-210 141.5t-138 242.5t-50 348.5zM285 754q0 -162 35.5 -282t101 -198.5 t158 -117.5t204.5 -39q111 0 202 39t155.5 116.5t99.5 197.5t35 284q0 147 -36 258.5t-100.5 188.5t-154.5 116t-201 39q-115 0 -207 -40t-157.5 -117t-100 -188.5t-34.5 -256.5z" />
<glyph unicode="P" horiz-adv-x="1218" d="M170 0v1475h465q252 0 372.5 -117t120.5 -322q0 -102 -30.5 -185t-95 -142.5t-162 -91t-230.5 -31.5h-282v-586h-158zM328 721h278q186 0 275.5 80t89.5 231q0 152 -82 227.5t-264 75.5h-297v-614z" />
<glyph unicode="Q" horiz-adv-x="1558" d="M117 754q0 184 50 324.5t140 233.5t213 141t271 48q141 0 260.5 -48t205.5 -141t135.5 -233.5t49.5 -324.5q0 -279 -92.5 -450t-251.5 -249v-6l315 -106l-49 -136l-487 175q-47 -6 -97 -7q-143 0 -265 46.5t-210 141.5t-138 242.5t-50 348.5zM285 754q0 -162 35.5 -282 t101 -198.5t158 -117.5t204.5 -39q111 0 202 39t155.5 116.5t99.5 197.5t35 284q0 147 -36 258.5t-100.5 188.5t-154.5 116t-201 39q-115 0 -207 -40t-157.5 -117t-100 -188.5t-34.5 -256.5z" />
<glyph unicode="R" horiz-adv-x="1286" d="M170 0v1475h463q260 0 381 -115t121 -309q0 -139 -59.5 -244t-188.5 -166l332 -641h-172l-314 604q-66 -14 -158 -14h-247v-590h-158zM328 723h272q186 0 280.5 81t94.5 234q0 147 -83 222t-263 75h-301v-612z" />
<glyph unicode="S" horiz-adv-x="1179" d="M70 197l90 102q100 -90 205.5 -139t222.5 -49q70 0 129 17t102 52t67.5 86t24.5 117q0 57 -15 101t-54 80t-105.5 65.5t-167.5 60.5q-121 37 -205.5 76t-139 87t-79 109.5t-24.5 143.5q0 94 36 168t99 125t149.5 76.5t186.5 25.5q287 0 471 -211l-92 -96 q-80 92 -179.5 132t-197.5 40q-66 0 -122 -15.5t-97 -46t-64.5 -77.5t-23.5 -109q0 -63 23.5 -106t71.5 -75t118.5 -58.5t165.5 -59.5q113 -39 190.5 -79t126.5 -89t70.5 -110.5t21.5 -143.5q0 -98 -35.5 -176t-100.5 -132t-155 -84t-200 -30q-158 0 -290 61.5t-224 160.5z " />
<glyph unicode="T" horiz-adv-x="1161" d="M37 1333v142h1087v-142h-462v-1333h-160v1333h-465z" />
<glyph unicode="U" horiz-adv-x="1411" d="M160 547v928h157v-910q0 -229 104.5 -338.5t291.5 -109.5q209 0 295 114.5t86 333.5v910h155v-928q0 -571 -542 -572q-123 0 -223.5 34t-173 104.5t-111.5 178t-39 255.5z" />
<glyph unicode="V" horiz-adv-x="1220" d="M37 1475h166l405 -1299l414 1299h162l-482 -1475h-188z" />
<glyph unicode="W" horiz-adv-x="1890" d="M37 1475h160l338 -1274l333 1274h156l336 -1276l330 1276h161l-391 -1475h-182l-332 1243l-332 -1243h-184z" />
<glyph unicode="X" horiz-adv-x="1187" d="M37 0l463 754l-449 721h174l373 -603l365 603h178l-455 -734l461 -741h-182l-375 610l-371 -610h-182z" />
<glyph unicode="Y" horiz-adv-x="1179" d="M35 1475h176l377 -693l379 693h176l-477 -850v-625h-160v625z" />
<glyph unicode="Z" horiz-adv-x="1193" d="M78 0v104l809 1229h-752v142h985v-70l-835 -1264h833v-141h-1040z" />
<glyph unicode="[" horiz-adv-x="702" d="M186 -256v1731h373v-123h-225v-1485h225v-123h-373z" />
<glyph unicode="\" horiz-adv-x="751" d="M57 1513h138l499 -1701h-131z" />
<glyph unicode="]" horiz-adv-x="702" d="M143 -133h226v1485h-226v123h371v-1731h-371v123z" />
<glyph unicode="^" horiz-adv-x="1411" d="M162 920l479 499h125l481 -506l-86 -73l-454 471l-459 -471z" />
<glyph unicode="_" horiz-adv-x="1011" d="M-4 -354h1018v-113h-1018v113z" />
<glyph unicode="`" horiz-adv-x="1024" d="M332 1448l92 104l289 -272l-72 -84z" />
<glyph unicode="a" horiz-adv-x="1058" d="M96 285q0 57 21.5 116.5t77 108.5t151.5 80t248 31q47 0 87 -3.5t85 -9.5v109q0 127 -63.5 190.5t-182.5 63.5q-92 0 -163.5 -33t-143.5 -92l-74 94q78 74 178.5 117t210.5 43q88 0 160 -21.5t123 -66.5t79 -117t28 -170v-725h-125l-15 199q-113 -223 -362 -224 q-145 0 -232.5 79t-87.5 231zM246 276q0 -84 52 -133t155 -49q68 0 125 33t99 84t65.5 112.5t23.5 118.5v50q-31 4 -67.5 7t-96.5 3q-190 0 -273 -57.5t-83 -168.5z" />
<glyph unicode="b" horiz-adv-x="1193" d="M152 0v1475h149v-555q68 84 156 132t202 48q213 0 322 -151.5t109 -409.5q0 -127 -28 -230.5t-84 -177.5t-142 -115t-203 -41q-70 0 -126 17.5t-99 44t-73 56.5t-46 54l-10 -147h-127zM301 289q18 -29 49 -60.5t72 -57.5t90 -42t106 -16q145 0 228.5 105.5t83.5 316.5 t-77 319.5t-222 108.5q-57 0 -105.5 -17.5t-88.5 -45.5t-73.5 -62.5t-62.5 -69.5v-479z" />
<glyph unicode="c" horiz-adv-x="1069" d="M100 541q0 135 37 238.5t102.5 175t154.5 108.5t192 37q188 0 291.5 -102.5t113.5 -288.5h-145q-16 135 -83 195.5t-181 60.5q-147 0 -234.5 -111t-87.5 -307q0 -90 20.5 -171t62.5 -140.5t105.5 -94.5t149.5 -35q49 0 89 7.5t77 23t75 38t81 52.5l65 -102 q-90 -78 -189.5 -114t-213.5 -36q-111 0 -200 39t-151.5 113t-96.5 178.5t-34 235.5z" />
<glyph unicode="d" horiz-adv-x="1193" d="M104 535q0 129 30 233t86 178t139 114t188 40q123 0 203.5 -50.5t140.5 -121.5v547h149v-1475h-133l-8 150q-20 -25 -52 -56t-76 -56.5t-101.5 -44t-126.5 -18.5q-113 0 -196 40t-136 114t-80 177.5t-27 228.5zM262 537q0 -80 15.5 -156t52.5 -135.5t98 -96t152 -36.5 q57 0 105 18.5t86 45t67.5 57t52.5 57.5v475q-18 25 -49 58.5t-72 64.5t-92 51.5t-113 20.5q-135 0 -219 -108t-84 -316z" />
<glyph unicode="e" d="M100 532q0 129 35 233.5t98.5 179.5t153.5 115t201 40q207 0 312.5 -128t105.5 -392v-84h-744q0 -86 20.5 -158t61.5 -123t105.5 -80t152.5 -29q92 0 164 30t152 89l69 -106q-90 -78 -188.5 -111t-208.5 -33q-111 0 -202 34t-154.5 103.5t-98.5 174t-35 245.5zM262 623 h590q0 74 -14.5 137t-45 111.5t-82 75t-126.5 26.5q-96 0 -157.5 -39t-97.5 -94.5t-50.5 -115.5t-16.5 -101z" />
<glyph unicode="f" horiz-adv-x="555" d="M66 950v94l122 23v154q0 57 13.5 108t42 90t75 60.5t111.5 21.5q70 0 137 -18l-8 -115q-20 6 -43.5 10t-52.5 4q-49 0 -87 -32.5t-38 -120.5v-154h201v-125h-201v-950h-150v950h-122z" />
<glyph unicode="g" horiz-adv-x="1202" d="M104 532q0 119 27 222.5t81 180.5t139 121t202 44q63 0 117.5 -17.5t98.5 -45t77 -59.5t55 -60v157h139v-1048q0 -133 -27.5 -220.5t-84 -140.5t-140 -74.5t-196.5 -21.5q-111 0 -210 19.5t-167 48.5l35 126q66 -23 149.5 -43t180.5 -20q96 0 157.5 20.5t96 62.5 t48 106.5t13.5 152.5v104q-57 -70 -145 -117.5t-209 -47.5q-115 0 -198 42t-136 115.5t-78 174t-25 218.5zM262 541q0 -94 18.5 -173t56.5 -135.5t96.5 -87t139.5 -30.5q59 0 107.5 17.5t88.5 43t69.5 54t52.5 53.5v485q-18 27 -48 60.5t-71 62.5t-90 49.5t-104 20.5 q-158 0 -237 -114t-79 -306z" />
<glyph unicode="h" horiz-adv-x="1126" d="M152 0v1475h149v-557q66 76 155 129t201 53q172 0 249 -107.5t77 -294.5v-698h-152v666q0 55 -6 108t-28.5 94t-64.5 67t-114 26q-53 0 -100 -17.5t-87 -44.5t-72.5 -58.5t-57.5 -60.5v-780h-149z" />
<glyph unicode="i" horiz-adv-x="477" d="M137 1366q0 43 30 68.5t73 25.5q45 0 73.5 -25.5t28.5 -68.5q0 -41 -28.5 -65.5t-73.5 -24.5q-43 0 -73 24.5t-30 65.5zM164 0v1075h149v-1075h-149z" />
<glyph unicode="j" horiz-adv-x="477" d="M-59 -395l16 114q37 -12 94 -12q53 0 83 28.5t30 123.5v1216h149v-1225q0 -125 -48 -195.5t-181 -70.5q-37 0 -73 4t-70 17zM137 1366q0 45 30 70.5t75 25.5q43 0 71.5 -25.5t28.5 -70.5q0 -41 -28.5 -66.5t-71.5 -25.5q-45 0 -75 25.5t-30 66.5z" />
<glyph unicode="k" horiz-adv-x="1042" d="M152 0v1475h149v-813h127l350 413h176l-403 -475l455 -600h-181l-407 532h-117v-532h-149z" />
<glyph unicode="l" horiz-adv-x="454" d="M154 0v1475h149v-1475h-149z" />
<glyph unicode="m" horiz-adv-x="1660" d="M152 0v1075h141v-164q57 76 139 132.5t197 56.5q119 0 178 -53.5t84 -133.5q63 76 147 131.5t199 55.5q86 0 141.5 -29t87 -78t44 -113.5t12.5 -136.5v-743h-150v721q0 111 -37 174t-139 63q-49 0 -93 -19t-80 -47t-63.5 -56.5t-44.5 -49.5v-786h-153v717q0 111 -35 176 t-137 65q-49 0 -94 -19t-82 -47t-66 -57.5t-47 -52.5v-782h-149z" />
<glyph unicode="n" horiz-adv-x="1126" d="M152 0v1075h141v-162q66 80 156 133.5t202 53.5q94 0 157.5 -30t102.5 -84t55.5 -128t16.5 -162v-696h-152v666q0 152 -51 223.5t-162 71.5q-55 0 -105 -20.5t-91 -48.5t-72 -59.5t-49 -52.5v-780h-149z" />
<glyph unicode="o" horiz-adv-x="1181" d="M100 532q0 133 36 239t100.5 178.5t155.5 111.5t204 39q111 0 200 -37t151.5 -109.5t97 -177t34.5 -239.5q0 -133 -35.5 -237.5t-101 -176.5t-158 -110t-204.5 -38q-225 0 -352.5 146.5t-127.5 410.5zM260 537q0 -111 24.5 -191t68.5 -132t103.5 -77.5t131.5 -25.5 q70 0 131 25.5t106 77.5t71 132t26 191t-26 190.5t-71 132.5t-106.5 79t-130.5 26q-141 0 -234.5 -106.5t-93.5 -321.5z" />
<glyph unicode="p" horiz-adv-x="1196" d="M152 -410v1485h143v-166q72 92 162 141.5t205 49.5q213 0 320.5 -151.5t107.5 -409.5q0 -127 -28 -230.5t-83 -177.5t-139 -115t-197 -41q-70 0 -126 16.5t-99 41t-73 51.5t-44 47v-541h-149zM301 281q18 -27 49 -56.5t72 -54.5t90 -41t104 -16q147 0 230.5 105.5 t83.5 316.5q0 209 -76 318.5t-219 109.5q-55 0 -103.5 -16.5t-90.5 -44.5t-76.5 -62.5t-63.5 -69.5v-489z" />
<glyph unicode="q" horiz-adv-x="1196" d="M104 535q0 129 30 233t87.5 178t140 114t191.5 40q121 0 204 -51.5t144 -126.5v153h139v-1485h-151v543q-18 -20 -48 -47t-72 -51.5t-97.5 -42t-124.5 -17.5q-115 0 -198 40t-137 114t-81 177.5t-27 228.5zM262 537q0 -80 16.5 -156t52.5 -135.5t95 -96t145 -36.5 q61 0 111.5 17t90.5 42t68.5 53.5t49.5 53.5v493q-18 25 -48 57.5t-70 62.5t-91 49.5t-113 19.5q-135 0 -221 -108t-86 -316z" />
<glyph unicode="r" horiz-adv-x="655" d="M152 0v1075h135v-170q35 82 99.5 138.5t145.5 56.5q25 0 50.5 -5t48.5 -14l-19 -147q-20 8 -41.5 10t-48.5 2q-37 0 -70.5 -18.5t-62.5 -46t-51.5 -61.5t-36.5 -64v-756h-149z" />
<glyph unicode="s" horiz-adv-x="978" d="M61 145l76 97q76 -61 164 -100.5t174 -39.5q113 0 181.5 48.5t68.5 132.5q0 39 -12.5 69.5t-43 54t-81.5 43t-129 37.5q-92 23 -157.5 50.5t-107.5 64.5t-60.5 84t-18.5 109q0 70 26.5 127t75.5 96t119 60.5t156 21.5q229 0 385 -160l-76 -90q-72 66 -151 95.5t-154 29.5 q-104 0 -165 -43t-61 -123q0 -41 15.5 -70.5t49.5 -51t84 -39t122 -36.5q180 -47 263 -117.5t83 -195.5q0 -74 -29 -134.5t-82 -102.5t-127 -64.5t-164 -22.5q-133 0 -242.5 49.5t-181.5 120.5z" />
<glyph unicode="t" horiz-adv-x="604" d="M57 950v94l133 29l23 293h125v-291h188v-125h-188v-751q0 -57 21.5 -78t66.5 -21q29 0 56.5 7.5t54.5 17.5l24 -111q-37 -16 -85 -27.5t-93 -11.5q-193 0 -193 195v780h-133z" />
<glyph unicode="u" horiz-adv-x="1120" d="M143 356v719h152v-684q0 -135 46 -206.5t169 -71.5q51 0 96 15t84 41t71 57.5t58 64.5v784h150v-1075h-140v160q-27 -33 -61.5 -66t-79.5 -59.5t-98 -43t-117 -16.5q-98 0 -162.5 30t-101.5 82t-51.5 120.5t-14.5 148.5z" />
<glyph unicode="v" horiz-adv-x="985" d="M31 1075h157l304 -919l315 919h147l-376 -1075h-177z" />
<glyph unicode="w" horiz-adv-x="1486" d="M55 1075h150l203 -895l258 885h147l270 -885l199 895h150l-267 -1075h-161l-267 860l-256 -860h-162z" />
<glyph unicode="x" horiz-adv-x="991" d="M37 0l366 545l-356 530h166l283 -426l276 426h164l-352 -530l368 -545h-164l-294 444l-293 -444h-164z" />
<glyph unicode="y" horiz-adv-x="978" d="M35 1075h162l295 -891l294 891h154l-387 -1116q-35 -98 -62.5 -168t-62.5 -116t-83 -67.5t-122 -21.5q-53 0 -96 6.5t-84 18.5l18 113q23 -4 60 -10.5t84 -6.5q33 0 57.5 9.5t46 33t41 65.5t41.5 107l25 78z" />
<glyph unicode="z" horiz-adv-x="894" d="M76 0v100l557 848h-543v127h737v-78l-569 -874h565v-123h-747z" />
<glyph unicode="{" horiz-adv-x="743" d="M72 516v125h55q53 0 87 15.5t52.5 47t25.5 81t7 116.5v211q0 94 14.5 162.5t50 113t97 66t155.5 21.5h78v-119h-86q-98 0 -128.5 -62.5t-30.5 -185.5v-272q0 -49 -6.5 -90t-24 -73t-51 -55.5t-88.5 -37.5q59 -10 93 -35t51 -63t21.5 -86t4.5 -103v-195q0 -119 32.5 -177 t143.5 -58h69v-119h-73q-92 0 -153.5 16.5t-98.5 54.5t-53.5 97t-16.5 145v242q0 104 -34 160.5t-134 56.5h-59z" />
<glyph unicode="|" horiz-adv-x="1024" d="M446 -410v1885h132v-1885h-132z" />
<glyph unicode="}" horiz-adv-x="743" d="M49 -137h70q111 0 143.5 58.5t32.5 176.5v195q0 55 4 103t21.5 86t51.5 62.5t93 35.5q-55 14 -89 37.5t-51.5 55.5t-23.5 72.5t-6 90.5v272q0 123 -31 185.5t-129 62.5h-86v119h78q94 0 155.5 -21.5t97.5 -66t50 -113t14 -162.5v-211q0 -68 7.5 -117t26 -80.5t52 -47 t86.5 -15.5h56v-125h-60q-51 0 -83.5 -14.5t-51 -42t-26 -68.5t-7.5 -92v-242q0 -86 -16 -145t-53 -97t-98.5 -54.5t-153.5 -16.5h-74v119z" />
<glyph unicode="&#xa2;" horiz-adv-x="1077" d="M119 725q0 127 32.5 225.5t91 168t138.5 109.5t174 48v199h129v-205q147 -23 232 -122t96 -259h-144q-16 135 -83.5 195.5t-178.5 60.5q-154 0 -240.5 -108.5t-86.5 -307.5q0 -90 21.5 -170t63.5 -139.5t105 -94t147 -34.5q96 0 168 29.5t154 89.5l66 -101 q-145 -125 -320 -143v-203h-131v199q-100 8 -181 51t-137.5 115.5t-86 173t-29.5 223.5z" />
<glyph unicode="&#xa3;" horiz-adv-x="1046" d="M90 0v123l100 8q55 63 104.5 144t49.5 178q0 25 -6 53.5t-14.5 57t-17.5 54t-17 44.5h-195v114h154q-47 92 -77 169t-30 161q0 86 34 153.5t90.5 115.5t133 74t162.5 26q123 0 225.5 -42t174.5 -133l-87 -88q-57 61 -131.5 95t-167.5 34q-129 0 -204.5 -61t-75.5 -178 q0 -68 29.5 -143.5t78.5 -182.5h324v-114h-287q16 -43 31.5 -103.5t15.5 -105.5q0 -100 -44 -178t-95 -140h600v-135h-858z" />
<glyph unicode="&#xa5;" horiz-adv-x="1169" d="M76 1452h164l344 -614l348 614h160l-383 -653h350v-113h-406v-168h406v-115h-406v-403h-143v403h-399v115h399v168h-399v113h344z" />
<glyph unicode="&#xa8;" horiz-adv-x="1024" d="M229 1337q0 39 28 66t71 27q47 0 72.5 -27t25.5 -66t-27.5 -64.5t-68.5 -25.5q-47 0 -74 25.5t-27 64.5zM616 1337q0 39 27 66t72 27q47 0 71.5 -27t24.5 -66t-26.5 -64.5t-69.5 -25.5q-45 0 -72 25.5t-27 64.5z" />
<glyph unicode="&#xad;" horiz-adv-x="686" d="M70 492v143h546v-143h-546z" />
<glyph unicode="&#xb8;" horiz-adv-x="1024" d="M332 -391l22 84q29 -10 62 -18.5t69 -8.5q37 0 67 13.5t30 58.5q0 43 -36 56t-102 13h-32l47 209h94l-27 -129q31 0 61.5 -7t55.5 -23.5t40 -44t15 -70.5q0 -88 -55 -128t-147 -40q-53 0 -99.5 12.5t-64.5 22.5z" />
<glyph unicode="&#xcb;" horiz-adv-x="1214" d="M170 0v1475h922v-142h-764v-508h696v-141h-696v-545h780v-139h-938zM344 1683q0 39 28 66t71 27q47 0 72.5 -27t25.5 -66q0 -37 -27.5 -63.5t-68.5 -26.5q-47 0 -74 25.5t-27 64.5zM731 1683q0 39 27 66t72 27q47 0 71.5 -27t24.5 -66q0 -37 -26.5 -63.5t-69.5 -26.5 q-45 0 -72 25.5t-27 64.5z" />
<glyph unicode="&#xcf;" horiz-adv-x="499" d="M-31 1683q0 39 28 66t71 27q47 0 72.5 -27t25.5 -66q0 -37 -27.5 -63.5t-68.5 -26.5q-47 0 -74 25.5t-27 64.5zM170 0v1475h158v-1475h-158zM356 1683q0 39 27 66t72 27q47 0 71.5 -27t24.5 -66q0 -37 -26.5 -63.5t-69.5 -26.5q-45 0 -72 25.5t-27 64.5z" />
<glyph unicode="&#xd6;" horiz-adv-x="1558" d="M117 754q0 184 50 324.5t140 233.5t213 141t271 48q141 0 260.5 -48t205.5 -141t135.5 -233.5t49.5 -324.5q0 -203 -50.5 -350.5t-138.5 -242.5t-209.5 -140.5t-263.5 -45.5q-143 0 -265 46.5t-210 141.5t-138 242.5t-50 348.5zM285 754q0 -162 35.5 -282t101 -198.5 t158 -117.5t204.5 -39q111 0 202 39t155.5 116.5t99.5 197.5t35 284q0 147 -36 258.5t-100.5 188.5t-154.5 116t-201 39q-115 0 -207 -40t-157.5 -117t-100 -188.5t-34.5 -256.5zM499 1683q0 39 28 66t71 27q47 0 72.5 -27t25.5 -66q0 -37 -27.5 -63.5t-68.5 -26.5 q-47 0 -74 25.5t-27 64.5zM886 1683q0 39 27 66t72 27q47 0 71.5 -27t24.5 -66q0 -37 -26.5 -63.5t-69.5 -26.5q-45 0 -72 25.5t-27 64.5z" />
<glyph unicode="&#xdc;" horiz-adv-x="1411" d="M160 547v928h157v-910q0 -229 104.5 -338.5t291.5 -109.5q209 0 295 114.5t86 333.5v910h155v-928q0 -571 -542 -572q-123 0 -223.5 34t-173 104.5t-111.5 178t-39 255.5zM424 1683q0 39 28 66t71 27q47 0 72.5 -27t25.5 -66q0 -37 -27.5 -63.5t-68.5 -26.5 q-47 0 -74 25.5t-27 64.5zM811 1683q0 39 27 66t72 27q47 0 71.5 -27t24.5 -66q0 -37 -26.5 -63.5t-69.5 -26.5q-45 0 -72 25.5t-27 64.5z" />
<glyph unicode="&#xe0;" horiz-adv-x="1058" d="M96 285q0 57 21.5 116.5t77 108.5t151.5 80t248 31q47 0 87 -3.5t85 -9.5v109q0 127 -63.5 190.5t-182.5 63.5q-92 0 -163.5 -33t-143.5 -92l-74 94q78 74 178.5 117t210.5 43q88 0 160 -21.5t123 -66.5t79 -117t28 -170v-725h-125l-15 199q-113 -223 -362 -224 q-145 0 -232.5 79t-87.5 231zM246 276q0 -84 52 -133t155 -49q68 0 125 33t99 84t65.5 112.5t23.5 118.5v50q-31 4 -67.5 7t-96.5 3q-190 0 -273 -57.5t-83 -168.5zM307 1448l92 104l289 -272l-72 -84z" />
<glyph unicode="&#xe2;" horiz-adv-x="1058" d="M96 285q0 57 21.5 116.5t77 108.5t151.5 80t248 31q47 0 87 -3.5t85 -9.5v109q0 127 -63.5 190.5t-182.5 63.5q-92 0 -163.5 -33t-143.5 -92l-74 94q78 74 178.5 117t210.5 43q88 0 160 -21.5t123 -66.5t79 -117t28 -170v-725h-125l-15 199q-113 -223 -362 -224 q-145 0 -232.5 79t-87.5 231zM240 1243l219 303h106l219 -303l-77 -55l-193 231l-194 -229zM246 276q0 -84 52 -133t155 -49q68 0 125 33t99 84t65.5 112.5t23.5 118.5v50q-31 4 -67.5 7t-96.5 3q-190 0 -273 -57.5t-83 -168.5z" />
<glyph unicode="&#xe4;" horiz-adv-x="1058" d="M96 285q0 57 21.5 116.5t77 108.5t151.5 80t248 31q47 0 87 -3.5t85 -9.5v109q0 127 -63.5 190.5t-182.5 63.5q-92 0 -163.5 -33t-143.5 -92l-74 94q78 74 178.5 117t210.5 43q88 0 160 -21.5t123 -66.5t79 -117t28 -170v-725h-125l-15 199q-113 -223 -362 -224 q-145 0 -232.5 79t-87.5 231zM229 1337q0 39 28 66t71 27q47 0 72.5 -27t25.5 -66t-27.5 -64.5t-68.5 -25.5q-47 0 -74 25.5t-27 64.5zM246 276q0 -84 52 -133t155 -49q68 0 125 33t99 84t65.5 112.5t23.5 118.5v50q-31 4 -67.5 7t-96.5 3q-190 0 -273 -57.5t-83 -168.5z M616 1337q0 39 27 66t72 27q47 0 71.5 -27t24.5 -66t-26.5 -64.5t-69.5 -25.5q-45 0 -72 25.5t-27 64.5z" />
<glyph unicode="&#xe8;" d="M100 532q0 129 35 233.5t98.5 179.5t153.5 115t201 40q207 0 312.5 -128t105.5 -392v-84h-744q0 -86 20.5 -158t61.5 -123t105.5 -80t152.5 -29q92 0 164 30t152 89l69 -106q-90 -78 -188.5 -111t-208.5 -33q-111 0 -202 34t-154.5 103.5t-98.5 174t-35 245.5zM262 623 h590q0 74 -14.5 137t-45 111.5t-82 75t-126.5 26.5q-96 0 -157.5 -39t-97.5 -94.5t-50.5 -115.5t-16.5 -101zM352 1448l92 104l289 -272l-72 -84z" />
<glyph unicode="&#xe9;" d="M100 532q0 129 35 233.5t98.5 179.5t153.5 115t201 40q207 0 312.5 -128t105.5 -392v-84h-744q0 -86 20.5 -158t61.5 -123t105.5 -80t152.5 -29q92 0 164 30t152 89l69 -106q-90 -78 -188.5 -111t-208.5 -33q-111 0 -202 34t-154.5 103.5t-98.5 174t-35 245.5zM262 623 h590q0 74 -14.5 137t-45 111.5t-82 75t-126.5 26.5q-96 0 -157.5 -39t-97.5 -94.5t-50.5 -115.5t-16.5 -101zM392 1280l288 272l90 -106l-309 -250z" />
<glyph unicode="&#xea;" d="M100 532q0 129 35 233.5t98.5 179.5t153.5 115t201 40q207 0 312.5 -128t105.5 -392v-84h-744q0 -86 20.5 -158t61.5 -123t105.5 -80t152.5 -29q92 0 164 30t152 89l69 -106q-90 -78 -188.5 -111t-208.5 -33q-111 0 -202 34t-154.5 103.5t-98.5 174t-35 245.5zM262 623 h590q0 74 -14.5 137t-45 111.5t-82 75t-126.5 26.5q-96 0 -157.5 -39t-97.5 -94.5t-50.5 -115.5t-16.5 -101zM303 1243l219 303h106l219 -303l-77 -55l-193 231l-194 -229z" />
<glyph unicode="&#xeb;" d="M100 532q0 129 35 233.5t98.5 179.5t153.5 115t201 40q207 0 312.5 -128t105.5 -392v-84h-744q0 -86 20.5 -158t61.5 -123t105.5 -80t152.5 -29q92 0 164 30t152 89l69 -106q-90 -78 -188.5 -111t-208.5 -33q-111 0 -202 34t-154.5 103.5t-98.5 174t-35 245.5zM262 623 h590q0 74 -14.5 137t-45 111.5t-82 75t-126.5 26.5q-96 0 -157.5 -39t-97.5 -94.5t-50.5 -115.5t-16.5 -101zM278 1337q0 39 28 66t71 27q47 0 72.5 -27t25.5 -66t-27.5 -64.5t-68.5 -25.5q-47 0 -74 25.5t-27 64.5zM665 1337q0 39 27 66t72 27q47 0 71.5 -27t24.5 -66 t-26.5 -64.5t-69.5 -25.5q-45 0 -72 25.5t-27 64.5z" />
<glyph unicode="&#xec;" horiz-adv-x="477" d="M39 1448l92 104l289 -272l-72 -84zM164 0v1075h149v-1075h-149z" />
<glyph unicode="&#xed;" horiz-adv-x="477" d="M62 1280l288 272l90 -106l-309 -250zM164 0v1075h149v-1075h-149z" />
<glyph unicode="&#xef;" horiz-adv-x="477" d="M-41 1337q0 39 28 66t71 27q47 0 72.5 -27t25.5 -66t-27.5 -64.5t-68.5 -25.5q-47 0 -74 25.5t-27 64.5zM164 0v1075h149v-1075h-149zM346 1337q0 39 27 66t72 27q47 0 71.5 -27t24.5 -66t-26.5 -64.5t-69.5 -25.5q-45 0 -72 25.5t-27 64.5z" />
<glyph unicode="&#xf2;" horiz-adv-x="1181" d="M100 532q0 133 36 239t100.5 178.5t155.5 111.5t204 39q111 0 200 -37t151.5 -109.5t97 -177t34.5 -239.5q0 -133 -35.5 -237.5t-101 -176.5t-158 -110t-204.5 -38q-225 0 -352.5 146.5t-127.5 410.5zM260 537q0 -111 24.5 -191t68.5 -132t103.5 -77.5t131.5 -25.5 q70 0 131 25.5t106 77.5t71 132t26 191t-26 190.5t-71 132.5t-106.5 79t-130.5 26q-141 0 -234.5 -106.5t-93.5 -321.5zM393 1448l92 104l289 -272l-72 -84z" />
<glyph unicode="&#xf3;" horiz-adv-x="1181" d="M100 532q0 133 36 239t100.5 178.5t155.5 111.5t204 39q111 0 200 -37t151.5 -109.5t97 -177t34.5 -239.5q0 -133 -35.5 -237.5t-101 -176.5t-158 -110t-204.5 -38q-225 0 -352.5 146.5t-127.5 410.5zM260 537q0 -111 24.5 -191t68.5 -132t103.5 -77.5t131.5 -25.5 q70 0 131 25.5t106 77.5t71 132t26 191t-26 190.5t-71 132.5t-106.5 79t-130.5 26q-141 0 -234.5 -106.5t-93.5 -321.5zM404 1280l288 272l90 -106l-309 -250z" />
<glyph unicode="&#xf6;" horiz-adv-x="1181" d="M100 532q0 133 36 239t100.5 178.5t155.5 111.5t204 39q111 0 200 -37t151.5 -109.5t97 -177t34.5 -239.5q0 -133 -35.5 -237.5t-101 -176.5t-158 -110t-204.5 -38q-225 0 -352.5 146.5t-127.5 410.5zM260 537q0 -111 24.5 -191t68.5 -132t103.5 -77.5t131.5 -25.5 q70 0 131 25.5t106 77.5t71 132t26 191t-26 190.5t-71 132.5t-106.5 79t-130.5 26q-141 0 -234.5 -106.5t-93.5 -321.5zM301 1337q0 39 28 66t71 27q47 0 72.5 -27t25.5 -66t-27.5 -64.5t-68.5 -25.5q-47 0 -74 25.5t-27 64.5zM688 1337q0 39 27 66t72 27q47 0 71.5 -27 t24.5 -66t-26.5 -64.5t-69.5 -25.5q-45 0 -72 25.5t-27 64.5z" />
<glyph unicode="&#xf9;" horiz-adv-x="1120" d="M143 356v719h152v-684q0 -135 46 -206.5t169 -71.5q51 0 96 15t84 41t71 57.5t58 64.5v784h150v-1075h-140v160q-27 -33 -61.5 -66t-79.5 -59.5t-98 -43t-117 -16.5q-98 0 -162.5 30t-101.5 82t-51.5 120.5t-14.5 148.5zM359 1448l92 104l289 -272l-72 -84z" />
<glyph unicode="&#xfa;" horiz-adv-x="1120" d="M143 356v719h152v-684q0 -135 46 -206.5t169 -71.5q51 0 96 15t84 41t71 57.5t58 64.5v784h150v-1075h-140v160q-27 -33 -61.5 -66t-79.5 -59.5t-98 -43t-117 -16.5q-98 0 -162.5 30t-101.5 82t-51.5 120.5t-14.5 148.5zM392 1280l288 272l90 -106l-309 -250z" />
<glyph unicode="&#xfc;" horiz-adv-x="1120" d="M143 356v719h152v-684q0 -135 46 -206.5t169 -71.5q51 0 96 15t84 41t71 57.5t58 64.5v784h150v-1075h-140v160q-27 -33 -61.5 -66t-79.5 -59.5t-98 -43t-117 -16.5q-98 0 -162.5 30t-101.5 82t-51.5 120.5t-14.5 148.5zM268 1337q0 39 28 66t71 27q47 0 72.5 -27 t25.5 -66t-27.5 -64.5t-68.5 -25.5q-47 0 -74 25.5t-27 64.5zM655 1337q0 39 27 66t72 27q47 0 71.5 -27t24.5 -66t-26.5 -64.5t-69.5 -25.5q-45 0 -72 25.5t-27 64.5z" />
<glyph unicode="&#xff;" horiz-adv-x="978" d="M35 1075h162l295 -891l294 891h154l-387 -1116q-35 -98 -62.5 -168t-62.5 -116t-83 -67.5t-122 -21.5q-53 0 -96 6.5t-84 18.5l18 113q23 -4 60 -10.5t84 -6.5q33 0 57.5 9.5t46 33t41 65.5t41.5 107l25 78zM204 1337q0 39 28 66t71 27q47 0 72.5 -27t25.5 -66 t-27.5 -64.5t-68.5 -25.5q-47 0 -74 25.5t-27 64.5zM591 1337q0 39 27 66t72 27q47 0 71.5 -27t24.5 -66t-26.5 -64.5t-69.5 -25.5q-45 0 -72 25.5t-27 64.5z" />
<glyph unicode="&#x2000;" horiz-adv-x="888" />
<glyph unicode="&#x2001;" horiz-adv-x="1776" />
<glyph unicode="&#x2002;" horiz-adv-x="888" />
<glyph unicode="&#x2003;" horiz-adv-x="1776" />
<glyph unicode="&#x2004;" horiz-adv-x="592" />
<glyph unicode="&#x2005;" horiz-adv-x="444" />
<glyph unicode="&#x2006;" horiz-adv-x="296" />
<glyph unicode="&#x2007;" horiz-adv-x="296" />
<glyph unicode="&#x2008;" horiz-adv-x="222" />
<glyph unicode="&#x2009;" horiz-adv-x="355" />
<glyph unicode="&#x200a;" horiz-adv-x="98" />
<glyph unicode="&#x2010;" horiz-adv-x="686" d="M70 492v143h546v-143h-546z" />
<glyph unicode="&#x2011;" horiz-adv-x="686" d="M70 492v143h546v-143h-546z" />
<glyph unicode="&#x2012;" horiz-adv-x="686" d="M70 492v143h546v-143h-546z" />
<glyph unicode="&#x2013;" horiz-adv-x="1024" d="M0 485v115h1024v-115h-1024z" />
<glyph unicode="&#x2014;" horiz-adv-x="2048" d="M0 485v115h2048v-115h-2048z" />
<glyph unicode="&#x2018;" horiz-adv-x="421" d="M98 1255q0 84 39 157t148 126l34 -57q-70 -41 -97 -83t-29 -100q25 12 49 13q41 0 65.5 -26.5t24.5 -67.5q0 -47 -30 -76t-83 -29q-66 0 -93.5 44t-27.5 99z" />
<glyph unicode="&#x2019;" horiz-adv-x="423" d="M88 1372q0 47 29.5 76t83.5 29q66 0 93.5 -44t27.5 -100q0 -84 -39 -156.5t-148 -125.5l-35 57q70 41 97.5 83t29.5 99q-25 -12 -49 -12q-41 0 -65.5 26.5t-24.5 67.5z" />
<glyph unicode="&#x201a;" horiz-adv-x="423" d="M100 55q0 47 29.5 76t83.5 29q66 0 93.5 -44t27.5 -100q0 -84 -39 -156.5t-148 -125.5l-35 57q70 41 97.5 83t29.5 99q-25 -12 -49 -12q-41 0 -65.5 26.5t-24.5 67.5z" />
<glyph unicode="&#x201c;" horiz-adv-x="731" d="M98 1256q0 84 39 156.5t148 125.5l35 -57q-70 -41 -97.5 -83t-29.5 -99q25 12 49 12q41 0 65.5 -26.5t24.5 -67.5q0 -47 -29.5 -76t-83.5 -29q-66 0 -93.5 44t-27.5 100zM407 1256q0 84 39 156.5t148 125.5l35 -57q-70 -41 -97.5 -83t-29.5 -99q25 12 49 12 q41 0 65.5 -26.5t24.5 -67.5q0 -47 -29.5 -76t-83.5 -29q-66 0 -93.5 44t-27.5 100z" />
<glyph unicode="&#x201d;" horiz-adv-x="733" d="M88 1372q0 47 29.5 76t83.5 29q66 0 93.5 -44t27.5 -100q0 -84 -39 -156.5t-148 -125.5l-35 57q70 41 97.5 83t29.5 99q-25 -12 -49 -12q-41 0 -65.5 26.5t-24.5 67.5zM397 1372q0 47 29.5 76t83.5 29q66 0 93.5 -44t27.5 -100q0 -84 -39 -156.5t-148 -125.5l-35 57 q70 41 97.5 83t29.5 99q-25 -12 -49 -12q-41 0 -65.5 26.5t-24.5 67.5z" />
<glyph unicode="&#x201e;" horiz-adv-x="731" d="M100 55q0 47 29.5 76t83.5 29q66 0 93.5 -44t27.5 -100q0 -84 -39 -156.5t-148 -125.5l-35 57q70 41 97.5 83t29.5 99q-25 -12 -49 -12q-41 0 -65.5 26.5t-24.5 67.5zM407 55q0 47 29.5 76t83.5 29q66 0 93.5 -44t27.5 -100q0 -84 -39 -156.5t-148 -125.5l-35 57 q70 41 97.5 83t29.5 99q-25 -12 -49 -12q-41 0 -65.5 26.5t-24.5 67.5z" />
<glyph unicode="&#x202f;" horiz-adv-x="355" />
<glyph unicode="&#x205f;" horiz-adv-x="444" />
<glyph unicode="&#x20ac;" horiz-adv-x="1236" d="M-25 520l9 113h159q-4 25 -4 46v50v33.5t2 36.5h-145l10 112h148q14 106 59 209t116.5 180.5t171 126t224.5 48.5q59 0 122.5 -12.5t123 -42t115 -78t100.5 -117.5l-92 -72q-70 98 -165 148.5t-206 50.5q-88 0 -158.5 -33t-123 -92.5t-88.5 -140t-52 -175.5h684l-8 -112 h-688q-2 -18 -2 -33.5v-34.5q0 -29 1 -51.5t3 -46.5h672l-9 -113h-647q20 -96 58 -173t91.5 -131t122 -84t148.5 -30q127 0 215 46.5t162 115.5l78 -88q-98 -100 -211 -150.5t-260 -50.5q-121 0 -214.5 44t-162 119t-112.5 173.5t-64 208.5h-183z" />
<glyph unicode="&#x25fc;" horiz-adv-x="1075" d="M0 0v1075h1075v-1075h-1075z" />
</font>
</defs>
</svg>
